<?xml version="1.0" encoding="UTF-8" standalone="no"?>
<svg
   xmlns:dc="http://purl.org/dc/elements/1.1/"
   xmlns:cc="http://creativecommons.org/ns#"
   xmlns:rdf="http://www.w3.org/1999/02/22-rdf-syntax-ns#"
   xmlns:svg="http://www.w3.org/2000/svg"
   xmlns="http://www.w3.org/2000/svg"
   xmlns:sodipodi="http://sodipodi.sourceforge.net/DTD/sodipodi-0.dtd"
   xmlns:inkscape="http://www.inkscape.org/namespaces/inkscape"
   version="1.1"
   width="4.15798cm"
   height="4.2799cm"
   viewBox="0 0 16370 16850 "
   id="svg2"
   inkscape:version="0.91 r13725"
   sodipodi:docname="attiny44a_servo_i2c-brd.svg">
  <metadata
     id="metadata360">
    <rdf:RDF>
      <cc:Work
         rdf:about="">
        <dc:format>image/svg+xml</dc:format>
        <dc:type
           rdf:resource="http://purl.org/dc/dcmitype/StillImage" />
      </cc:Work>
    </rdf:RDF>
  </metadata>
  <defs
     id="defs358" />
  <sodipodi:namedview
     pagecolor="#ffffff"
     bordercolor="#666666"
     borderopacity="1"
     objecttolerance="10"
     gridtolerance="10"
     guidetolerance="10"
     inkscape:pageopacity="0"
     inkscape:pageshadow="2"
     inkscape:window-width="1284"
     inkscape:window-height="762"
     id="namedview356"
     showgrid="false"
     inkscape:zoom="2.2008203"
     inkscape:cx="111.14844"
     inkscape:cy="63.046798"
     inkscape:window-x="35"
     inkscape:window-y="0"
     inkscape:window-maximized="0"
     inkscape:current-layer="g344" />
  <title
     id="title4">SVG Picture created as attiny44a_servo_i2c-brd.svg date 2016/05/07 18:24:04 </title>
  <desc
     id="desc6">Picture generated by PCBNEW </desc>
  <g
     style="fill:#000000; fill-opacity:1;stroke:#000000; stroke-opacity:1; stroke-linecap:round; stroke-linejoin:round; "
     transform="translate(0 0) scale(1 1)"
     id="g8" />
  <g
     style="fill:#000000; fill-opacity:0.0;  stroke:#000000; stroke-width:-0.000393701; stroke-opacity:1;  stroke-linecap:round; stroke-linejoin:round;"
     id="g10" />
  <g
     style="fill:#000000;fill-opacity:0;stroke:#000000;stroke-width:118.11000061;stroke-linecap:round;stroke-linejoin:round;stroke-opacity:1"
     id="g12"
     transform="translate(-2855.9321,-1927.7542)"
     inkscape:export-xdpi="1500"
     inkscape:export-ydpi="1500">
    <path
       d="m 15245,10655 -28,56 0,113 28,56 56,28 28,0 56,-28 29,-56 0,-85 28,-56 56,-28 28,0 56,28 28,56 0,85 -28,56"
       id="path14"
       inkscape:connector-curvature="0" />
    <path
       d="m 15245,11386 -28,-56 0,-113 28,-56 56,-28 225,0 56,28 28,56 0,113 -28,56 -56,28 -56,0 -56,-281"
       id="path16"
       inkscape:connector-curvature="0" />
    <path
       d="m 15217,11667 393,0"
       id="path18"
       inkscape:connector-curvature="0" />
    <path
       d="m 15498,11667 56,28 28,28 28,57 0,56"
       id="path20"
       inkscape:connector-curvature="0" />
    <path
       d="m 15610,11977 -393,140 393,141"
       id="path22"
       inkscape:connector-curvature="0" />
    <path
       d="m 15217,12567 28,-56 28,-28 56,-28 169,0 56,28 28,28 28,56 0,84 -28,57 -28,28 -56,28 -169,0 -56,-28 -28,-28 -28,-57 0,-84"
       id="path24"
       inkscape:connector-curvature="0" />
    <path
       d="m 15160,12876 0,450"
       id="path26"
       inkscape:connector-curvature="0" />
    <path
       d="m 15610,13720 -393,0"
       id="path28"
       inkscape:connector-curvature="0" />
    <path
       d="m 15835,13579 -421,-140 0,365"
       id="path30"
       inkscape:connector-curvature="0" />
    <path
       d="m 15610,14283 -393,0"
       id="path32"
       inkscape:connector-curvature="0" />
    <path
       d="m 15835,14142 -421,-141 0,366"
       id="path34"
       inkscape:connector-curvature="0" />
    <path
       d="m 15160,14451 0,450"
       id="path36"
       inkscape:connector-curvature="0" />
    <path
       d="m 15217,15042 590,0"
       id="path38"
       inkscape:connector-curvature="0" />
    <path
       d="m 15751,15295 28,28 28,56 0,141 -28,56 -28,28 -56,28 -56,0 -85,-28 -337,-337 0,365"
       id="path40"
       inkscape:connector-curvature="0" />
    <path
       d="m 15273,16223 -28,-28 -28,-85 0,-56 28,-84 56,-56 56,-29 113,-28 84,0 113,28 56,29 56,56 28,84 0,56 -28,85 -28,28"
       id="path42"
       inkscape:connector-curvature="0" />
  </g>
  <g
     style="fill:#000000; fill-opacity:0.0;  stroke:#000000; stroke-width:0; stroke-opacity:1;  stroke-linecap:round; stroke-linejoin:round;"
     id="g44" />
  <g
     style="fill:#000000;fill-opacity:1;stroke:#000000;stroke-width:0;stroke-linecap:round;stroke-linejoin:round;stroke-opacity:1"
     id="g46"
     transform="translate(-2855.9321,-1927.7542)"
     inkscape:export-xdpi="1500"
     inkscape:export-ydpi="1500">
    <polyline
       style="fill-rule:evenodd"
       points="12794,15735 12124,15735 12124,14948 12794,14948 12794,15735 "
       id="polyline48" />
    <polyline
       style="fill-rule:evenodd"
       points="12794,14160 12124,14160 12124,13373 12794,13373 12794,14160 "
       id="polyline50" />
    <polyline
       style="fill-rule:evenodd"
       points="11573,13209 10704,13209 10704,12969 11573,12969 11573,13209 "
       id="polyline52" />
    <polyline
       style="fill-rule:evenodd"
       points="11573,12709 10704,12709 10704,12469 11573,12469 11573,12709 "
       id="polyline54" />
    <polyline
       style="fill-rule:evenodd"
       points="11573,12209 10704,12209 10704,11969 11573,11969 11573,12209 "
       id="polyline56" />
    <polyline
       style="fill-rule:evenodd"
       points="11573,11709 10704,11709 10704,11469 11573,11469 11573,11709 "
       id="polyline58" />
    <polyline
       style="fill-rule:evenodd"
       points="11573,11209 10704,11209 10704,10969 11573,10969 11573,11209 "
       id="polyline60" />
    <polyline
       style="fill-rule:evenodd"
       points="11573,10709 10704,10709 10704,10469 11573,10469 11573,10709 "
       id="polyline62" />
    <polyline
       style="fill-rule:evenodd"
       points="11573,10209 10704,10209 10704,9969 11573,9969 11573,10209 "
       id="polyline64" />
    <polyline
       style="fill-rule:evenodd"
       points="9523,10209 8654,10209 8654,9969 9523,9969 9523,10209 "
       id="polyline66" />
    <polyline
       style="fill-rule:evenodd"
       points="9523,10709 8654,10709 8654,10469 9523,10469 9523,10709 "
       id="polyline68" />
    <polyline
       style="fill-rule:evenodd"
       points="9523,11209 8654,11209 8654,10969 9523,10969 9523,11209 "
       id="polyline70" />
    <polyline
       style="fill-rule:evenodd"
       points="9523,11709 8654,11709 8654,11469 9523,11469 9523,11709 "
       id="polyline72" />
    <polyline
       style="fill-rule:evenodd"
       points="9523,12209 8654,12209 8654,11969 9523,11969 9523,12209 "
       id="polyline74" />
    <polyline
       style="fill-rule:evenodd"
       points="9523,12709 8654,12709 8654,12469 9523,12469 9523,12709 "
       id="polyline76" />
    <polyline
       style="fill-rule:evenodd"
       points="9523,13209 8654,13209 8654,12969 9523,12969 9523,13209 "
       id="polyline78" />
    <polyline
       style="fill-rule:evenodd"
       points="9349,9479 8849,9479 8849,8479 9349,8479 9349,9479 "
       id="polyline80" />
    <polyline
       style="fill-rule:evenodd"
       points="9349,7330 8849,7330 8849,6330 9349,6330 9349,7330 "
       id="polyline82" />
    <polyline
       style="fill-rule:evenodd"
       points="10349,9479 9849,9479 9849,8479 10349,8479 10349,9479 "
       id="polyline84" />
    <polyline
       style="fill-rule:evenodd"
       points="10349,7330 9849,7330 9849,6330 10349,6330 10349,7330 "
       id="polyline86" />
    <polyline
       style="fill-rule:evenodd"
       points="11349,9479 10849,9479 10849,8479 11349,8479 11349,9479 "
       id="polyline88" />
    <polyline
       style="fill-rule:evenodd"
       points="11349,7330 10849,7330 10849,6330 11349,6330 11349,7330 "
       id="polyline90" />
    <polyline
       style="fill-rule:evenodd"
       points="12949,9479 12449,9479 12449,8479 12949,8479 12949,9479 "
       id="polyline92" />
    <polyline
       style="fill-rule:evenodd"
       points="12949,7330 12449,7330 12449,6330 12949,6330 12949,7330 "
       id="polyline94" />
    <polyline
       style="fill-rule:evenodd"
       points="13949,9479 13449,9479 13449,8479 13949,8479 13949,9479 "
       id="polyline96" />
    <polyline
       style="fill-rule:evenodd"
       points="13949,7330 13449,7330 13449,6330 13949,6330 13949,7330 "
       id="polyline98" />
    <polyline
       style="fill-rule:evenodd"
       points="14949,9479 14449,9479 14449,8479 14949,8479 14949,9479 "
       id="polyline100" />
    <polyline
       style="fill-rule:evenodd"
       points="14949,7330 14449,7330 14449,6330 14949,6330 14949,7330 "
       id="polyline102" />
  </g>
  <g
     style="fill:#000000; fill-opacity:1.0;  stroke:#000000; stroke-width:593; stroke-opacity:1;  stroke-linecap:round; stroke-linejoin:round;"
     id="g104" />
  <g
     style="fill:#000000;fill-opacity:0;stroke:#000000;stroke-width:593;stroke-linecap:round;stroke-linejoin:round;stroke-opacity:1"
     id="g106"
     transform="translate(-2855.9321,-1927.7542)"
     inkscape:export-xdpi="1500"
     inkscape:export-ydpi="1500">
    <path
       d="m 11169,14546 0,-594"
       id="path108"
       inkscape:connector-curvature="0" />
    <path
       d="m 10169,14546 0,-594"
       id="path110"
       inkscape:connector-curvature="0" />
    <path
       d="m 9169,14546 0,-594"
       id="path112"
       inkscape:connector-curvature="0" />
  </g>
  <g
     style="fill:#000000; fill-opacity:0.0;  stroke:#000000; stroke-width:0; stroke-opacity:1;  stroke-linecap:round; stroke-linejoin:round;"
     id="g114" />
  <g
     style="fill:#000000;fill-opacity:1;stroke:#000000;stroke-width:0;stroke-linecap:round;stroke-linejoin:round;stroke-opacity:1"
     id="g116"
     transform="translate(-2855.9321,-1927.7542)"
     inkscape:export-xdpi="1500"
     inkscape:export-ydpi="1500">
    <polyline
       style="fill-rule:evenodd"
       points="12378,11214 12378,10544 13165,10544 13165,11214 12378,11214 "
       id="polyline118" />
    <polyline
       style="fill-rule:evenodd"
       points="13953,11214 13953,10544 14740,10544 14740,11214 13953,11214 "
       id="polyline120" />
    <polyline
       style="fill-rule:evenodd"
       points="13887,12487 12391,12487 12391,12191 13887,12191 13887,12487 "
       id="polyline122" />
    <polyline
       style="fill-rule:evenodd"
       points="13887,11987 12391,11987 12391,11691 13887,11691 13887,11987 "
       id="polyline124" />
    <polyline
       style="fill-rule:evenodd"
       points="13887,12987 12391,12987 12391,12691 13887,12691 13887,12987 "
       id="polyline126" />
  </g>
  <g
     style="fill:#000000; fill-opacity:1.0;  stroke:#000000; stroke-width:137.795; stroke-opacity:1;  stroke-linecap:round; stroke-linejoin:round;"
     id="g128" />
  <g
     style="fill:#000000;fill-opacity:0;stroke:#000000;stroke-width:137.79499817;stroke-linecap:round;stroke-linejoin:round;stroke-opacity:1"
     id="g130"
     transform="translate(-2855.9321,-1927.7542)"
     inkscape:export-xdpi="1500"
     inkscape:export-ydpi="1500">
    <path
       d="m 11749,14471 1842,0"
       id="path132"
       inkscape:connector-curvature="0" />
    <path
       d="m 14754,11286 -408,-407"
       id="path134"
       inkscape:connector-curvature="0" />
    <path
       d="m 14754,13308 0,-2022"
       id="path136"
       inkscape:connector-curvature="0" />
    <path
       d="m 13591,14471 1163,-1163"
       id="path138"
       inkscape:connector-curvature="0" />
    <path
       d="m 10169,14249 0,100"
       id="path140"
       inkscape:connector-curvature="0" />
    <path
       d="m 10169,14349 740,740"
       id="path142"
       inkscape:connector-curvature="0" />
    <path
       d="m 10909,15089 490,0"
       id="path144"
       inkscape:connector-curvature="0" />
    <path
       d="m 11399,15089 350,-350"
       id="path146"
       inkscape:connector-curvature="0" />
    <path
       d="m 11749,14739 0,-268"
       id="path148"
       inkscape:connector-curvature="0" />
    <path
       d="m 11749,14471 0,-772"
       id="path150"
       inkscape:connector-curvature="0" />
    <path
       d="m 11749,13699 -610,-610"
       id="path152"
       inkscape:connector-curvature="0" />
    <path
       d="m 9099,6830 0,-911"
       id="path154"
       inkscape:connector-curvature="0" />
    <path
       d="m 9099,5919 980,-980"
       id="path156"
       inkscape:connector-curvature="0" />
    <path
       d="m 10079,4939 4780,0"
       id="path158"
       inkscape:connector-curvature="0" />
    <path
       d="m 14859,4939 710,710"
       id="path160"
       inkscape:connector-curvature="0" />
    <path
       d="m 15569,5649 0,4007"
       id="path162"
       inkscape:connector-curvature="0" />
    <path
       d="m 15569,9656 -1223,1223"
       id="path164"
       inkscape:connector-curvature="0" />
    <path
       d="m 12699,6830 0,889"
       id="path166"
       inkscape:connector-curvature="0" />
    <path
       d="m 13199,9599 1147,1147"
       id="path168"
       inkscape:connector-curvature="0" />
    <path
       d="m 13199,8219 0,1380"
       id="path170"
       inkscape:connector-curvature="0" />
    <path
       d="m 12699,7719 500,500"
       id="path172"
       inkscape:connector-curvature="0" />
    <path
       d="m 14346,10746 0,133"
       id="path174"
       inkscape:connector-curvature="0" />
    <path
       d="m 12699,6830 -131,0"
       id="path176"
       inkscape:connector-curvature="0" />
    <path
       d="m 11139,12589 810,0"
       id="path178"
       inkscape:connector-curvature="0" />
    <path
       d="m 12199,12839 940,0"
       id="path180"
       inkscape:connector-curvature="0" />
    <path
       d="m 11949,12589 250,250"
       id="path182"
       inkscape:connector-curvature="0" />
    <path
       d="m 13139,11839 -940,0"
       id="path184"
       inkscape:connector-curvature="0" />
    <path
       d="m 11949,12089 -810,0"
       id="path186"
       inkscape:connector-curvature="0" />
    <path
       d="m 12199,11839 -250,250"
       id="path188"
       inkscape:connector-curvature="0" />
    <path
       d="m 12771,10879 -412,0"
       id="path190"
       inkscape:connector-curvature="0" />
    <path
       d="m 12359,10879 -540,540"
       id="path192"
       inkscape:connector-curvature="0" />
    <path
       d="m 11819,9699 0,1720"
       id="path194"
       inkscape:connector-curvature="0" />
    <path
       d="m 11649,11589 170,-170"
       id="path196"
       inkscape:connector-curvature="0" />
    <path
       d="m 11099,8979 720,720"
       id="path198"
       inkscape:connector-curvature="0" />
    <path
       d="m 11649,11589 -510,0"
       id="path200"
       inkscape:connector-curvature="0" />
    <path
       d="m 10099,6830 0,-691"
       id="path202"
       inkscape:connector-curvature="0" />
    <path
       d="m 13699,6009 0,821"
       id="path204"
       inkscape:connector-curvature="0" />
    <path
       d="m 13429,5739 270,270"
       id="path206"
       inkscape:connector-curvature="0" />
    <path
       d="m 10499,5739 2930,0"
       id="path208"
       inkscape:connector-curvature="0" />
    <path
       d="m 10099,6139 400,-400"
       id="path210"
       inkscape:connector-curvature="0" />
    <path
       d="m 11139,10089 -50,0"
       id="path212"
       inkscape:connector-curvature="0" />
    <path
       d="m 11089,10089 -490,-490"
       id="path214"
       inkscape:connector-curvature="0" />
    <path
       d="m 10599,9599 0,-2269"
       id="path216"
       inkscape:connector-curvature="0" />
    <path
       d="m 10599,7330 -500,-500"
       id="path218"
       inkscape:connector-curvature="0" />
    <path
       d="m 9099,8979 0,1100"
       id="path220"
       inkscape:connector-curvature="0" />
    <path
       d="m 9099,10079 -10,10"
       id="path222"
       inkscape:connector-curvature="0" />
    <path
       d="m 9599,7519 0,-1500"
       id="path224"
       inkscape:connector-curvature="0" />
    <path
       d="m 15179,5929 0,1570"
       id="path226"
       inkscape:connector-curvature="0" />
    <path
       d="m 15179,7499 -980,980"
       id="path228"
       inkscape:connector-curvature="0" />
    <path
       d="m 10099,8979 0,-960"
       id="path230"
       inkscape:connector-curvature="0" />
    <path
       d="m 14199,8479 -500,500"
       id="path232"
       inkscape:connector-curvature="0" />
    <path
       d="M 10099,8019 9599,7519"
       id="path234"
       inkscape:connector-curvature="0" />
    <path
       d="m 14599,5349 580,580"
       id="path236"
       inkscape:connector-curvature="0" />
    <path
       d="m 10269,5349 4330,0"
       id="path238"
       inkscape:connector-curvature="0" />
    <path
       d="m 9599,6019 670,-670"
       id="path240"
       inkscape:connector-curvature="0" />
    <path
       d="m 10099,8979 0,1280"
       id="path242"
       inkscape:connector-curvature="0" />
    <path
       d="m 9769,10589 -680,0"
       id="path244"
       inkscape:connector-curvature="0" />
    <path
       d="m 10099,10259 -330,330"
       id="path246"
       inkscape:connector-curvature="0" />
    <path
       d="m 12459,13766 1164,0"
       id="path248"
       inkscape:connector-curvature="0" />
    <path
       d="m 14219,13171 0,-832"
       id="path250"
       inkscape:connector-curvature="0" />
    <path
       d="m 13623,13766 596,-595"
       id="path252"
       inkscape:connector-curvature="0" />
    <path
       d="m 9169,14249 0,320"
       id="path254"
       inkscape:connector-curvature="0" />
    <path
       d="m 9169,14569 910,910"
       id="path256"
       inkscape:connector-curvature="0" />
    <path
       d="m 10079,15479 2242,0"
       id="path258"
       inkscape:connector-curvature="0" />
    <path
       d="m 12321,15479 138,-138"
       id="path260"
       inkscape:connector-curvature="0" />
    <path
       d="m 9169,14249 0,360"
       id="path262"
       inkscape:connector-curvature="0" />
    <path
       d="m 9089,13089 0,1080"
       id="path264"
       inkscape:connector-curvature="0" />
    <path
       d="m 9089,14169 80,80"
       id="path266"
       inkscape:connector-curvature="0" />
    <path
       d="m 11099,6830 159,0"
       id="path268"
       inkscape:connector-curvature="0" />
    <path
       d="m 11258,6830 754,-755"
       id="path270"
       inkscape:connector-curvature="0" />
    <path
       d="m 14699,7409 0,-579"
       id="path272"
       inkscape:connector-curvature="0" />
    <path
       d="m 14529,7579 170,-170"
       id="path274"
       inkscape:connector-curvature="0" />
    <path
       d="m 13319,7579 1210,0"
       id="path276"
       inkscape:connector-curvature="0" />
    <path
       d="m 13199,7459 120,120"
       id="path278"
       inkscape:connector-curvature="0" />
    <path
       d="m 13199,6199 0,1260"
       id="path280"
       inkscape:connector-curvature="0" />
    <path
       d="m 13075,6075 124,124"
       id="path282"
       inkscape:connector-curvature="0" />
    <path
       d="m 12012,6075 1063,0"
       id="path284"
       inkscape:connector-curvature="0" />
    <path
       d="m 13559,11259 0,-720"
       id="path286"
       inkscape:connector-curvature="0" />
    <path
       d="m 11099,7619 1080,1080"
       id="path288"
       inkscape:connector-curvature="0" />
    <path
       d="m 12179,8699 0,900"
       id="path290"
       inkscape:connector-curvature="0" />
    <path
       d="m 13559,11259 200,200"
       id="path292"
       inkscape:connector-curvature="0" />
    <path
       d="m 13759,11459 480,0"
       id="path294"
       inkscape:connector-curvature="0" />
    <path
       d="m 14239,11459 180,180"
       id="path296"
       inkscape:connector-curvature="0" />
    <path
       d="m 14419,11639 0,500"
       id="path298"
       inkscape:connector-curvature="0" />
    <path
       d="m 14419,12139 -200,200"
       id="path300"
       inkscape:connector-curvature="0" />
    <path
       d="m 13139,12339 1080,0"
       id="path302"
       inkscape:connector-curvature="0" />
    <path
       d="m 11099,7619 0,-789"
       id="path304"
       inkscape:connector-curvature="0" />
    <path
       d="m 12659,10079 -480,-480"
       id="path306"
       inkscape:connector-curvature="0" />
    <path
       d="m 13099,10079 -440,0"
       id="path308"
       inkscape:connector-curvature="0" />
    <path
       d="m 13559,10539 -460,-460"
       id="path310"
       inkscape:connector-curvature="0" />
    <path
       d="m 11169,14249 0,-140"
       id="path312"
       inkscape:connector-curvature="0" />
    <path
       d="m 11169,14109 -760,-760"
       id="path314"
       inkscape:connector-curvature="0" />
    <path
       d="m 10409,13349 0,-2550"
       id="path316"
       inkscape:connector-curvature="0" />
    <path
       d="m 10409,10799 210,-210"
       id="path318"
       inkscape:connector-curvature="0" />
    <path
       d="m 10619,10589 520,0"
       id="path320"
       inkscape:connector-curvature="0" />
  </g>
  <g
     style="fill:#FFFFFF; fill-opacity:0.0;  stroke:#FFFFFF; stroke-width:137.795; stroke-opacity:1;  stroke-linecap:round; stroke-linejoin:round;"
     id="g322" />
  <g
     style="fill:#FFFFFF; fill-opacity:1.0;  stroke:#FFFFFF; stroke-width:39.3701; stroke-opacity:1;  stroke-linecap:round; stroke-linejoin:round;"
     id="g328" />
  <g
     style="fill:#FFFFFF; fill-opacity:1.0;  stroke:#FFFFFF; stroke-width:39.3701; stroke-opacity:1;  stroke-linecap:round; stroke-linejoin:round;"
     id="g334" />
  <g
     style="fill:#FFFFFF; fill-opacity:1.0;  stroke:#FFFFFF; stroke-width:39.3701; stroke-opacity:1;  stroke-linecap:round; stroke-linejoin:round;"
     id="g340" />
  <g
     style="fill:#000000; fill-opacity:1.0;  stroke:#000000; stroke-width:39.3701; stroke-opacity:1;  stroke-linecap:round; stroke-linejoin:round;"
     id="g342" />
  <g
     style="fill:#000000;fill-opacity:0;stroke:#000000;stroke-width:334.64564867;stroke-linecap:round;stroke-linejoin:miter;stroke-miterlimit:4;stroke-dasharray:none;stroke-opacity:1"
     id="g344"
     transform="translate(-2784.5338,-2034.8517)"
     inkscape:export-xdpi="1500"
     inkscape:export-ydpi="1500">
    <path
       d="m 7679,4479 0,35"
       id="path346"
       inkscape:connector-curvature="0"
       style="stroke-width:334.64564867;stroke-linejoin:miter;stroke-miterlimit:4;stroke-dasharray:none" />
    <path
       d="m 16359,4479 -8680,0"
       id="path348"
       inkscape:connector-curvature="0"
       style="stroke-width:334.64564867;stroke-linejoin:miter;stroke-miterlimit:4;stroke-dasharray:none" />
    <path
       d="m 16359,16834 0,-12355"
       id="path350"
       inkscape:connector-curvature="0"
       style="stroke-width:334.64564867;stroke-linejoin:miter;stroke-miterlimit:4;stroke-dasharray:none" />
    <path
       d="m 7679,16834 8680,0"
       id="path352"
       inkscape:connector-curvature="0"
       style="stroke-width:334.64564867;stroke-linejoin:miter;stroke-miterlimit:4;stroke-dasharray:none" />
    <path
       d="m 7679,4514 0,12320"
       id="path354"
       inkscape:connector-curvature="0"
       style="stroke-width:334.64564867;stroke-linejoin:miter;stroke-miterlimit:4;stroke-dasharray:none" />
    <rect
       style="fill:none;fill-opacity:1;stroke:#000000;stroke-width:0;stroke-linejoin:miter;stroke-miterlimit:4;stroke-dasharray:none;stroke-opacity:1"
       id="rect4490"
       width="8342.8457"
       height="12015.722"
       x="7845.7773"
       y="4647.7358"
       inkscape:export-xdpi="1500"
       inkscape:export-ydpi="1500" />
  </g>
</svg>
