<?xml version="1.0" encoding="UTF-8" standalone="no"?>
<svg
   xmlns:dc="http://purl.org/dc/elements/1.1/"
   xmlns:cc="http://creativecommons.org/ns#"
   xmlns:rdf="http://www.w3.org/1999/02/22-rdf-syntax-ns#"
   xmlns:svg="http://www.w3.org/2000/svg"
   xmlns="http://www.w3.org/2000/svg"
   xmlns:sodipodi="http://sodipodi.sourceforge.net/DTD/sodipodi-0.dtd"
   xmlns:inkscape="http://www.inkscape.org/namespaces/inkscape"
   version="1.1"
   width="3.28168cm"
   height="2.84734cm"
   viewBox="0 0 12920 11210 "
   id="svg2"
   inkscape:version="0.91 r13725"
   sodipodi:docname="attiny44a_servo_i2c-brd.svg">
  <metadata
     id="metadata362">
    <rdf:RDF>
      <cc:Work
         rdf:about="">
        <dc:format>image/svg+xml</dc:format>
        <dc:type
           rdf:resource="http://purl.org/dc/dcmitype/StillImage" />
      </cc:Work>
    </rdf:RDF>
  </metadata>
  <defs
     id="defs360" />
  <sodipodi:namedview
     pagecolor="#ffffff"
     bordercolor="#666666"
     borderopacity="1"
     objecttolerance="10"
     gridtolerance="10"
     guidetolerance="10"
     inkscape:pageopacity="0"
     inkscape:pageshadow="2"
     inkscape:window-width="1243"
     inkscape:window-height="755"
     id="namedview358"
     showgrid="false"
     inkscape:zoom="4"
     inkscape:cx="76.468881"
     inkscape:cy="46.521578"
     inkscape:window-x="37"
     inkscape:window-y="1"
     inkscape:window-maximized="1"
     inkscape:current-layer="svg2" />
  <title
     id="title4">SVG Picture created as attiny44a_servo_i2c-brd.svg date 2016/05/04 23:59:59 </title>
  <desc
     id="desc6">Picture generated by PCBNEW </desc>
  <g
     style="fill:#000000; fill-opacity:1;stroke:#000000; stroke-opacity:1; stroke-linecap:round; stroke-linejoin:round; "
     transform="translate(0 0) scale(1 1)"
     id="g8" />
  <g
     style="fill:#000000; fill-opacity:0.0;  stroke:#000000; stroke-width:-0.000393701; stroke-opacity:1;  stroke-linecap:round; stroke-linejoin:round;"
     id="g10" />
  <g
     style="fill:#000000; fill-opacity:0.0;  stroke:#000000; stroke-width:0; stroke-opacity:1;  stroke-linecap:round; stroke-linejoin:round;"
     id="g12" />
  <g
     style="fill:#000000; fill-opacity:1.0;  stroke:#000000; stroke-width:0; stroke-opacity:1;  stroke-linecap:round; stroke-linejoin:round;"
     id="g14"
     inkscape:export-filename="/Users/kevinphy/Documents/Git/fablabtaipei/students/103/week13/attiny44a_servo_i2c_traces.png"
     inkscape:export-xdpi="1500"
     inkscape:export-ydpi="1500">
    <polyline
       style="fill-rule:evenodd;"
       points="3679,2975 4548,2975 4548,3215 3679,3215 3679,2975 "
       id="polyline16" />
    <polyline
       style="fill-rule:evenodd;"
       points="3679,3475 4548,3475 4548,3715 3679,3715 3679,3475 "
       id="polyline18" />
    <polyline
       style="fill-rule:evenodd;"
       points="3679,3975 4548,3975 4548,4215 3679,4215 3679,3975 "
       id="polyline20" />
    <polyline
       style="fill-rule:evenodd;"
       points="3679,4475 4548,4475 4548,4715 3679,4715 3679,4475 "
       id="polyline22" />
    <polyline
       style="fill-rule:evenodd;"
       points="3679,4975 4548,4975 4548,5215 3679,5215 3679,4975 "
       id="polyline24" />
    <polyline
       style="fill-rule:evenodd;"
       points="3679,5475 4548,5475 4548,5715 3679,5715 3679,5475 "
       id="polyline26" />
    <polyline
       style="fill-rule:evenodd;"
       points="3679,5975 4548,5975 4548,6215 3679,6215 3679,5975 "
       id="polyline28" />
    <polyline
       style="fill-rule:evenodd;"
       points="5729,5975 6598,5975 6598,6215 5729,6215 5729,5975 "
       id="polyline30" />
    <polyline
       style="fill-rule:evenodd;"
       points="5729,5475 6598,5475 6598,5715 5729,5715 5729,5475 "
       id="polyline32" />
    <polyline
       style="fill-rule:evenodd;"
       points="5729,4975 6598,4975 6598,5215 5729,5215 5729,4975 "
       id="polyline34" />
    <polyline
       style="fill-rule:evenodd;"
       points="5729,4475 6598,4475 6598,4715 5729,4715 5729,4475 "
       id="polyline36" />
    <polyline
       style="fill-rule:evenodd;"
       points="5729,3975 6598,3975 6598,4215 5729,4215 5729,3975 "
       id="polyline38" />
    <polyline
       style="fill-rule:evenodd;"
       points="5729,3475 6598,3475 6598,3715 5729,3715 5729,3475 "
       id="polyline40" />
    <polyline
       style="fill-rule:evenodd;"
       points="5729,2975 6598,2975 6598,3215 5729,3215 5729,2975 "
       id="polyline42" />
    <polyline
       style="fill-rule:evenodd;"
       points="6789,6795 7289,6795 7289,7795 6789,7795 6789,6795 "
       id="polyline44" />
    <polyline
       style="fill-rule:evenodd;"
       points="6789,8944 7289,8944 7289,9944 6789,9944 6789,8944 "
       id="polyline46" />
    <polyline
       style="fill-rule:evenodd;"
       points="5789,6795 6289,6795 6289,7795 5789,7795 5789,6795 "
       id="polyline48" />
    <polyline
       style="fill-rule:evenodd;"
       points="5789,8944 6289,8944 6289,9944 5789,9944 5789,8944 "
       id="polyline50" />
    <polyline
       style="fill-rule:evenodd;"
       points="4789,6795 5289,6795 5289,7795 4789,7795 4789,6795 "
       id="polyline52" />
    <polyline
       style="fill-rule:evenodd;"
       points="4789,8944 5289,8944 5289,9944 4789,9944 4789,8944 "
       id="polyline54" />
    <polyline
       style="fill-rule:evenodd;"
       points="8239,3335 8239,2655 9039,2655 9039,3335 8239,3335 "
       id="polyline56" />
  </g>
  <g
     style="fill:#000000; fill-opacity:1.0;  stroke:#000000; stroke-width:680; stroke-opacity:1;  stroke-linecap:round; stroke-linejoin:round;"
     id="g58" />
  <g
     style="fill:#000000; fill-opacity:0.0;  stroke:#000000; stroke-width:680; stroke-opacity:1;  stroke-linecap:round; stroke-linejoin:round;"
     id="g60"
     inkscape:export-filename="/Users/kevinphy/Documents/Git/fablabtaipei/students/103/week13/attiny44a_servo_i2c_traces.png"
     inkscape:export-xdpi="1500"
     inkscape:export-ydpi="1500">
    <path
       d="M8579 3995 L8699 3995 "
       id="path62" />
    <path
       d="M8579 4995 L8699 4995 "
       id="path64" />
    <path
       d="M8579 5995 L8699 5995 "
       id="path66" />
  </g>
  <g
     style="fill:#000000; fill-opacity:0.0;  stroke:#000000; stroke-width:593; stroke-opacity:1;  stroke-linecap:round; stroke-linejoin:round;"
     id="g68"
     inkscape:export-filename="/Users/kevinphy/Documents/Git/fablabtaipei/students/103/week13/attiny44a_servo_i2c_traces.png"
     inkscape:export-xdpi="1500"
     inkscape:export-ydpi="1500">
    <path
       d="M1642 7595 L2236 7595 "
       id="path70" />
    <path
       d="M1642 6595 L2236 6595 "
       id="path72" />
    <path
       d="M1642 5595 L2236 5595 "
       id="path74" />
  </g>
  <g
     style="fill:#000000; fill-opacity:0.0;  stroke:#000000; stroke-width:0; stroke-opacity:1;  stroke-linecap:round; stroke-linejoin:round;"
     id="g76" />
  <g
     style="fill:#000000; fill-opacity:1.0;  stroke:#000000; stroke-width:0; stroke-opacity:1;  stroke-linecap:round; stroke-linejoin:round;"
     id="g78"
     inkscape:export-filename="/Users/kevinphy/Documents/Git/fablabtaipei/students/103/week13/attiny44a_servo_i2c_traces.png"
     inkscape:export-xdpi="1500"
     inkscape:export-ydpi="1500">
    <polyline
       style="fill-rule:evenodd;"
       points="3504,7014 4174,7014 4174,7801 3504,7801 3504,7014 "
       id="polyline80" />
    <polyline
       style="fill-rule:evenodd;"
       points="3504,8589 4174,8589 4174,9376 3504,9376 3504,8589 "
       id="polyline82" />
    <polyline
       style="fill-rule:evenodd;"
       points="6603,2243 5225,2243 5225,1947 6603,1947 6603,2243 "
       id="polyline84" />
    <polyline
       style="fill-rule:evenodd;"
       points="6603,1743 5225,1743 5225,1447 6603,1447 6603,1743 "
       id="polyline86" />
    <polyline
       style="fill-rule:evenodd;"
       points="6603,2743 5225,2743 5225,2447 6603,2447 6603,2743 "
       id="polyline88" />
  </g>
  <g
     style="fill:#000000; fill-opacity:1.0;  stroke:#000000; stroke-width:137.795; stroke-opacity:1;  stroke-linecap:round; stroke-linejoin:round;"
     id="g90" />
  <g
     style="fill:#000000; fill-opacity:0.0;  stroke:#000000; stroke-width:137.795; stroke-opacity:1;  stroke-linecap:round; stroke-linejoin:round;"
     id="g92"
     inkscape:export-filename="/Users/kevinphy/Documents/Git/fablabtaipei/students/103/week13/attiny44a_servo_i2c_traces.png"
     inkscape:export-xdpi="1500"
     inkscape:export-ydpi="1500">
    <path
       d="M4114 3095 L3639 3095 "
       id="path94" />
    <path
       d="M2939 5695 L2039 6595 "
       id="path96" />
    <path
       d="M2939 3795 L2939 5695 "
       id="path98" />
    <path
       d="M3639 3095 L2939 3795 "
       id="path100" />
    <path
       d="M2039 6595 L1939 6595 "
       id="path102" />
    <path
       d="M1639 8982 L1626 8982 "
       id="path104" />
    <path
       d="M1626 8982 L1039 8395 "
       id="path106" />
    <path
       d="M1339 6595 L1939 6595 "
       id="path108" />
    <path
       d="M1039 6895 L1339 6595 "
       id="path110" />
    <path
       d="M1039 8395 L1039 6895 "
       id="path112" />
    <path
       d="M7039 9444 L7590 9444 "
       id="path114" />
    <path
       d="M8039 4995 L8639 4995 "
       id="path116" />
    <path
       d="M7839 5195 L8039 4995 "
       id="path118" />
    <path
       d="M7839 9195 L7839 5195 "
       id="path120" />
    <path
       d="M7590 9444 L7839 9195 "
       id="path122" />
    <path
       d="M2139 6595 L1639 6595 "
       id="path124" />
    <path
       d="M1639 8982 L3839 8982 "
       id="path126" />
    <path
       d="M3839 8982 L4251 8982 "
       id="path128" />
    <path
       d="M4251 8982 L4639 8595 "
       id="path130" />
    <path
       d="M4639 8595 L5339 8595 "
       id="path132" />
    <path
       d="M5339 8595 L5539 8795 "
       id="path134" />
    <path
       d="M5539 8795 L5539 10095 "
       id="path136" />
    <path
       d="M5539 10095 L5839 10395 "
       id="path138" />
    <path
       d="M5839 10395 L6739 10395 "
       id="path140" />
    <path
       d="M7039 10095 L7039 9444 "
       id="path142" />
    <path
       d="M6739 10395 L7039 10095 "
       id="path144" />
    <path
       d="M4801 3433 L4801 1908 "
       id="path148" />
    <path
       d="M5114 1595 L5914 1595 "
       id="path150" />
    <path
       d="M4801 1908 L5114 1595 "
       id="path152" />
    <path
       d="M4639 3595 L4114 3595 "
       id="path154" />
    <path
       d="M4801 3433 L4639 3595 "
       id="path158" />
    <path
       d="M5914 2595 L5739 2595 "
       id="path160" />
    <path
       d="M5739 2595 L5339 2995 "
       id="path162" />
    <path
       d="M5339 2995 L5339 3795 "
       id="path164" />
    <path
       d="M5339 3795 L5039 4095 "
       id="path166" />
    <path
       d="M5039 4095 L4114 4095 "
       id="path168" />
    <path
       d="M4083 4126 L4114 4095 "
       id="path170" />
    <path
       d="M4114 4595 L4739 4595 "
       id="path172" />
    <path
       d="M5039 4895 L5039 7295 "
       id="path174" />
    <path
       d="M4739 4595 L5039 4895 "
       id="path176" />
    <path
       d="M3839 7408 L4926 7408 "
       id="path178" />
    <path
       d="M4926 7408 L5039 7295 "
       id="path180" />
    <path
       d="M2939 6195 L2939 7295 "
       id="path182" />
    <path
       d="M2939 6195 L3439 5695 "
       id="path184" />
    <path
       d="M3439 5695 L3439 5195 "
       id="path186" />
    <path
       d="M3439 5195 L3539 5095 "
       id="path188" />
    <path
       d="M4114 5095 L3539 5095 "
       id="path190" />
    <path
       d="M2639 7595 L1939 7595 "
       id="path192" />
    <path
       d="M2939 7295 L2639 7595 "
       id="path194" />
    <path
       d="M2139 7595 L2439 7595 "
       id="path196" />
    <path
       d="M3239 7895 L3239 6495 "
       id="path198" />
    <path
       d="M3239 7895 L3439 8095 "
       id="path200" />
    <path
       d="M3439 8095 L5839 8095 "
       id="path202" />
    <path
       d="M5839 8095 L6039 8295 "
       id="path204" />
    <path
       d="M6039 9444 L6039 8295 "
       id="path206" />
    <path
       d="M3639 6095 L4114 6095 "
       id="path208" />
    <path
       d="M3239 6495 L3639 6095 "
       id="path210" />
    <path
       d="M7339 8295 L7539 8095 "
       id="path212" />
    <path
       d="M6039 9444 L6390 9444 "
       id="path214" />
    <path
       d="M6839 8295 L7339 8295 "
       id="path216" />
    <path
       d="M6539 8595 L6839 8295 "
       id="path218" />
    <path
       d="M6539 9295 L6539 8595 "
       id="path220" />
    <path
       d="M6390 9444 L6539 9295 "
       id="path222" />
    <path
       d="M7739 3995 L8639 3995 "
       id="path224" />
    <path
       d="M7539 4195 L7739 3995 "
       id="path226" />
    <path
       d="M7539 8095 L7539 4195 "
       id="path228" />
    <path
       d="M6164 6095 L6839 6095 "
       id="path230" />
    <path
       d="M7039 6295 L7039 7295 "
       id="path232" />
    <path
       d="M6839 6095 L7039 6295 "
       id="path234" />
    <path
       d="M8639 2995 L7139 2995 "
       id="path236" />
    <path
       d="M6939 5395 L6739 5595 "
       id="path238" />
    <path
       d="M6739 5595 L6164 5595 "
       id="path240" />
    <path
       d="M6939 3195 L6939 5395 "
       id="path242" />
    <path
       d="M7139 2995 L6939 3195 "
       id="path244" />
    <path
       d="M6164 5595 L5739 5595 "
       id="path246" />
    <path
       d="M5739 5595 L5439 5895 "
       id="path248" />
    <path
       d="M5439 5895 L5439 6295 "
       id="path250" />
    <path
       d="M5439 6295 L6039 6895 "
       id="path252" />
    <path
       d="M6039 6895 L6039 7295 "
       id="path254" />
    <path
       d="M6964 2070 L5939 2070 "
       id="path256" />
    <path
       d="M5939 2070 L5914 2095 "
       id="path258" />
    <path
       d="M5114 1120 L6689 1120 "
       id="path260" />
    <path
       d="M1939 5595 L1939 4295 "
       id="path262" />
    <path
       d="M5114 1120 L1939 4295 "
       id="path264" />
    <path
       d="M6614 3095 L6164 3095 "
       id="path266" />
    <path
       d="M6964 2745 L6614 3095 "
       id="path268" />
    <path
       d="M6964 1395 L6964 2070 "
       id="path270" />
    <path
       d="M6964 2070 L6964 2745 "
       id="path272" />
    <path
       d="M6689 1120 L6964 1395 "
       id="path274" />
    <path
       d="M2339 10395 L639 8695 "
       id="path276" />
    <path
       d="M4739 10395 L2339 10395 "
       id="path278" />
    <path
       d="M1139 5595 L1939 5595 "
       id="path280" />
    <path
       d="M639 6095 L1139 5595 "
       id="path282" />
    <path
       d="M639 8695 L639 6095 "
       id="path284" />
    <path
       d="M8639 5995 L8639 8995 "
       id="path286" />
    <path
       d="M5039 10695 L4739 10395 "
       id="path288" />
    <path
       d="M6939 10695 L5039 10695 "
       id="path290" />
    <path
       d="M8639 8995 L6939 10695 "
       id="path292" />
    <path
       d="M5039 9444 L5039 10095 "
       id="path294" />
    <path
       d="M5039 10095 L4739 10395 "
       id="path296" />
  </g>
  <g
     style="fill:#FFFFFF; fill-opacity:0.0;  stroke:#FFFFFF; stroke-width:137.795; stroke-opacity:1;  stroke-linecap:round; stroke-linejoin:round;"
     id="g298" />
  <g
     style="fill:#FFFFFF; fill-opacity:1.0;  stroke:#FFFFFF; stroke-width:39.3701; stroke-opacity:1;  stroke-linecap:round; stroke-linejoin:round;"
     id="g304" />
  <g
     style="fill:#FFFFFF; fill-opacity:1.0;  stroke:#FFFFFF; stroke-width:39.3701; stroke-opacity:1;  stroke-linecap:round; stroke-linejoin:round;"
     id="g310" />
  <g
     style="fill:#FFFFFF; fill-opacity:1.0;  stroke:#FFFFFF; stroke-width:39.3701; stroke-opacity:1;  stroke-linecap:round; stroke-linejoin:round;"
     id="g316" />
  <g
     style="fill:#FFFFFF; fill-opacity:1.0;  stroke:#FFFFFF; stroke-width:39.3701; stroke-opacity:1;  stroke-linecap:round; stroke-linejoin:round;"
     id="g322" />
  <g
     style="fill:#FFFFFF; fill-opacity:1.0;  stroke:#FFFFFF; stroke-width:39.3701; stroke-opacity:1;  stroke-linecap:round; stroke-linejoin:round;"
     id="g328" />
  <g
     style="fill:#FFFFFF; fill-opacity:1.0;  stroke:#FFFFFF; stroke-width:39.3701; stroke-opacity:1;  stroke-linecap:round; stroke-linejoin:round;"
     id="g334" />
  <g
     style="fill:#FFFFFF; fill-opacity:1.0;  stroke:#FFFFFF; stroke-width:39.3701; stroke-opacity:1;  stroke-linecap:round; stroke-linejoin:round;"
     id="g340" />
  <g
     style="fill:#000000; fill-opacity:1.0;  stroke:#000000; stroke-width:39.3701; stroke-opacity:1;  stroke-linecap:round; stroke-linejoin:round;"
     id="g342" />
  <g
     style="fill:#000000;fill-opacity:0;stroke:#000000;stroke-width:317.951638;stroke-linecap:round;stroke-linejoin:round;stroke-miterlimit:4;stroke-dasharray:none;stroke-opacity:1"
     id="g344"
     inkscape:export-filename="/Users/kevinphy/Documents/Git/fablabtaipei/students/103/week13/attiny44a_servo_i2c_cutout.png"
     inkscape:export-xdpi="1500"
     inkscape:export-ydpi="1500"
     transform="matrix(1.0168193,0,0,1.0263004,2.785897,-270.09699)">
    <path
       d="m 39,11195 0,-400"
       id="path346"
       style="stroke-width:317.951638;stroke-miterlimit:4;stroke-dasharray:none"
       inkscape:connector-curvature="0" />
    <path
       d="m 9539,11195 -9500,0"
       id="path348"
       style="stroke-width:317.951638;stroke-miterlimit:4;stroke-dasharray:none"
       inkscape:connector-curvature="0" />
    <path
       d="m 9539,10895 0,300"
       id="path350"
       style="stroke-width:317.951638;stroke-miterlimit:4;stroke-dasharray:none"
       inkscape:connector-curvature="0" />
    <path
       d="m 39,895 9500,0"
       id="path352"
       style="stroke-width:317.951638;stroke-miterlimit:4;stroke-dasharray:none"
       inkscape:connector-curvature="0" />
    <path
       d="M 39,10995 39,895"
       id="path354"
       style="stroke-width:317.951638;stroke-miterlimit:4;stroke-dasharray:none"
       inkscape:connector-curvature="0" />
    <path
       d="m 9539,895 0,10100"
       id="path356"
       style="stroke-width:317.951638;stroke-miterlimit:4;stroke-dasharray:none"
       inkscape:connector-curvature="0" />
  </g>
</svg>
